<svg width="128" height="38" viewBox="0 0 128 38" fill="none" xmlns="http://www.w3.org/2000/svg">
<path fill-rule="evenodd" clip-rule="evenodd" d="M15.5003 38L26.4735 26.8646C32.5085 20.7398 32.5091 10.7172 26.4735 4.59311C20.4379 -1.53104 10.5621 -1.53104 4.52645 4.59311C-1.50915 10.7179 -1.50849 20.7398 4.52645 26.8646L15.4997 38H15.5003ZM7.39597 23.9527C2.9388 19.4289 2.9388 12.0281 7.39597 7.50436C11.8531 2.98131 19.1469 2.98131 23.604 7.50436C28.0612 12.0274 28.0612 19.4289 23.604 23.9527C19.1462 28.4757 11.8531 28.4757 7.39597 23.9527Z" fill="#FF2755"/>
<path d="M16.8905 21.1643C17.7809 21.1643 18.5654 21.0415 19.2438 20.796C19.9435 20.5301 20.5901 20.1209 21.1837 19.5686L23.8233 22.3303C22.212 24.1101 19.8587 25 16.7633 25C14.8339 25 13.1272 24.642 11.6431 23.926C10.159 23.1895 9.01413 22.1769 8.20848 20.8881C7.40283 19.5993 7 18.1366 7 16.5C7 14.8839 7.39223 13.4314 8.17668 12.1426C8.98233 10.8333 10.0742 9.8207 11.4523 9.10469C12.8516 8.36823 14.4205 8 16.159 8C17.7915 8 19.2756 8.33755 20.6113 9.01264C21.947 9.66727 23.0071 10.6288 23.7915 11.8971C24.5972 13.145 25 14.6282 25 16.3466L12.3428 18.7094C12.7032 19.5277 13.265 20.1414 14.0283 20.5505C14.8127 20.9597 15.7668 21.1643 16.8905 21.1643ZM16.159 11.6209C14.9081 11.6209 13.8905 12.0096 13.106 12.787C12.3216 13.5644 11.9081 14.6384 11.8657 16.009L20.1979 14.444C19.9647 13.5848 19.4876 12.8995 18.7668 12.3881C18.0459 11.8767 17.1767 11.6209 16.159 11.6209Z" fill="#FF2755"/>
<path d="M127.131 7.97742V24.8966H122.477V22.8839C121.827 23.6177 121.051 24.1838 120.15 24.5821C119.248 24.9595 118.273 25.1482 117.225 25.1482C115.003 25.1482 113.242 24.5087 111.942 23.2298C110.642 21.9509 109.992 20.0536 109.992 17.5377V7.97742H114.898V16.8144C114.898 19.5399 116.04 20.9027 118.326 20.9027C119.5 20.9027 120.443 20.5253 121.156 19.7705C121.869 18.9948 122.225 17.8522 122.225 16.3427V7.97742H127.131Z" fill="#FF2755"/>
<path d="M98.6263 7.7258C100.723 7.7258 102.411 8.35477 103.689 9.6127C104.989 10.8706 105.639 12.7366 105.639 15.2105V24.8966H100.733V15.9652C100.733 14.6235 100.44 13.6276 99.8528 12.9777C99.2657 12.3068 98.4166 11.9713 97.3054 11.9713C96.0685 11.9713 95.0831 12.3592 94.3493 13.1349C93.6155 13.8897 93.2486 15.0218 93.2486 16.5313V24.8966H88.3427V7.97739H93.0285V9.95863C93.6784 9.2458 94.4856 8.7007 95.45 8.32332C96.4144 7.92497 97.4732 7.7258 98.6263 7.7258Z" fill="#FF2755"/>
<path d="M77.0257 21.2171C77.9063 21.2171 78.682 21.0913 79.3529 20.8397C80.0448 20.5672 80.6842 20.1479 81.2713 19.5818L83.8815 22.4121C82.2881 24.2361 79.9609 25.1481 76.9 25.1481C74.9921 25.1481 73.3044 24.7812 71.8368 24.0475C70.3692 23.2927 69.2371 22.2549 68.4404 20.9341C67.6437 19.6132 67.2453 18.1142 67.2453 16.437C67.2453 14.7807 67.6332 13.2921 68.4089 11.9713C69.2056 10.6295 70.2853 9.59173 71.6481 8.85794C73.0318 8.10318 74.5833 7.7258 76.3024 7.7258C77.9168 7.7258 79.3844 8.07173 80.7052 8.76359C82.026 9.43449 83.0743 10.4199 83.85 11.7197C84.6467 12.9986 85.0451 14.5186 85.0451 16.2797L72.5286 18.7012C72.8851 19.5399 73.4406 20.1688 74.1954 20.5881C74.9711 21.0075 75.9146 21.2171 77.0257 21.2171ZM76.3024 11.4367C75.0655 11.4367 74.0591 11.835 73.2834 12.6317C72.5077 13.4284 72.0988 14.5291 72.0569 15.9338L80.2964 14.3299C80.0657 13.4494 79.594 12.747 78.8812 12.2229C78.1684 11.6988 77.3088 11.4367 76.3024 11.4367Z" fill="#FF2755"/>
<path d="M57.003 7.7258C59.1205 7.7258 60.7978 8.35477 62.0347 9.6127C63.2927 10.8497 63.9216 12.7156 63.9216 15.2105V24.8966H59.0157V15.9652C59.0157 14.6235 58.7327 13.6276 58.1666 12.9777C57.6215 12.3068 56.8353 11.9713 55.808 11.9713C54.6549 11.9713 53.7429 12.3487 53.072 13.1035C52.4011 13.8372 52.0656 14.9379 52.0656 16.4055V24.8966H47.1597V15.9652C47.1597 13.3026 46.0905 11.9713 43.952 11.9713C42.8198 11.9713 41.9183 12.3487 41.2474 13.1035C40.5765 13.8372 40.2411 14.9379 40.2411 16.4055V24.8966H35.3351V7.97739H40.0209V9.92718C40.6499 9.21435 41.4151 8.66925 42.3167 8.29187C43.2391 7.91449 44.2455 7.7258 45.3357 7.7258C46.5307 7.7258 47.6105 7.9669 48.5749 8.44911C49.5393 8.91035 50.315 9.59173 50.902 10.4932C51.5939 9.6127 52.464 8.93132 53.5122 8.44911C54.5815 7.9669 55.7451 7.7258 57.003 7.7258Z" fill="#FF2755"/>
</svg>
